PathFileType	4	(X/Y/Z)	/Users/itak/Documents/Research/Walk-IL/dataset/trc/00538_00009.trc
DataRate	CameraRate	NumFrames	NumMarkers	Units	OrigDataRate	OrigDataStartFrame	OrigNumFrames
100.000000	100.000000	4	55	mm	100.000000	0	676
Frame#	Time	RPSI			LPSI			L3			STRN			T10			C7			CLAV			RBAK			LBAK			LSHO			LUPA			LAEL			LAOL			LWTS			LWPS			LFRA			LIFD			LHPS			LHTS			RSHO			RUPA			RAEL			RAOL			RWTS			RWPS			RFRA			RIFD			RHTS			RHPS			RBHD			LFHD			RFHD			LBHD			LHIP			RHIP			RASI			LASI			LKNE			LTHI			LANK			LTIP			LTOE			LMT1			LMT5			LHEE			RKNE			RTHI			RANK			RTIP			RTOE			RMT5			RHEE			RMT1			*53			*54			
		X1	Y1	Z1	X2	Y2	Z2	X3	Y3	Z3	X4	Y4	Z4	X5	Y5	Z5	X6	Y6	Z6	X7	Y7	Z7	X8	Y8	Z8	X9	Y9	Z9	X10	Y10	Z10	X11	Y11	Z11	X12	Y12	Z12	X13	Y13	Z13	X14	Y14	Z14	X15	Y15	Z15	X16	Y16	Z16	X17	Y17	Z17	X18	Y18	Z18	X19	Y19	Z19	X20	Y20	Z20	X21	Y21	Z21	X22	Y22	Z22	X23	Y23	Z23	X24	Y24	Z24	X25	Y25	Z25	X26	Y26	Z26	X27	Y27	Z27	X28	Y28	Z28	X29	Y29	Z29	X30	Y30	Z30	X31	Y31	Z31	X32	Y32	Z32	X33	Y33	Z33	X34	Y34	Z34	X35	Y35	Z35	X36	Y36	Z36	X37	Y37	Z37	X38	Y38	Z38	X39	Y39	Z39	X40	Y40	Z40	X41	Y41	Z41	X42	Y42	Z42	X43	Y43	Z43	X44	Y44	Z44	X45	Y45	Z45	X46	Y46	Z46	X47	Y47	Z47	X48	Y48	Z48	X49	Y49	Z49	X50	Y50	Z50	X51	Y51	Z51	X52	Y52	Z52	X53	Y53	Z53	X54	Y54	Z54	X55	Y55	Z55	

1	0	-695.4951171875	1019.696838378906	508.9451904296875	-686.1220703125	1022.766052246094	375.2751770019531	-686.9132690429688	1107.826293945312	438.7037963867188	-465.5479125976562	1296.550659179688	438.1220703125	-704.3464965820312	1232.890625	438.7958374023438	-662.9797973632812	1506.709106445312	450.8313903808594	-487.7877502441406	1407.612426757812	438.7834777832031	-731.2152709960938	1380.889038085938	539.0747680664062	-695.8656616210938	1453.23779296875	358.9544982910156	-597.7406616210938	1479.11279296875	276.9266662597656	-605.3511352539062	1352.41015625	196.2057800292969	-579.3264770507812	1130.475463867188	176.0179595947266	-666.9930419921875	1120.903198242188	224.9174499511719	-481.4461364746094	890.05322265625	225.4058380126953	-526.1318359375	865.4567260742188	153.7841339111328	-554.2487182617188	1044.74072265625	170.4793548583984	-478.7592468261719	719.0374755859375	221.1941375732422	-515.607666015625	805.6749877929688	163.2441711425781	-462.1597900390625	813.9163818359375	205.5143280029297	-600.0316772460938	1468.669921875	605.0115966796875	-616.0595703125	1402.70849609375	673.3567504882812	-614.8063354492188	1112.078125	715.7591552734375	-668.6338500976562	1094.164916992188	689.2392578125	-480.1876831054688	893.112548828125	669.8410034179688	-522.0140380859375	871.9556274414062	737.8858032226562	-602.6537475585938	1056.126831054688	721.7913818359375	-468.1029357910156	719.9240112304688	672.6287841796875	-449.9144287109375	802.351806640625	683.9099731445312	-502.774169921875	798.5518798828125	735.0741577148438	-603.394775390625	1685.152099609375	509.615966796875	-438.9064331054688	1720.41162109375	387.0535888671875	-467.7981872558594	1715.673583984375	529.161865234375	-563.6366577148438	1689.498413085938	348.766845703125	-555.617431640625	939.8827514648438	251.2885284423828	-578.8436889648438	942.1141357421875	634.0640869140625	-488.9789733886719	970.5902709960938	581.7130737304688	-478.6024780273438	961.9490356445312	305.5906982421875	-550.0086669921875	493.2057495117188	314.0605163574219	-540.0014038085938	658.9133911132812	274.9283142089844	-643.7544555664062	34.10274505615234	322.3303527832031	-622.0120849609375	251.1762084960938	309.3751525878906	-431.755126953125	39.36456680297852	373.510009765625	-502.8139343261719	41.25711441040039	411.8018493652344	-521.0154418945312	35.19623947143555	305.2272338867188	-711.4470825195312	36.69338226318359	380.2685241699219	-571.9423217773438	496.6156311035156	581.7492065429688	-546.8157348632812	785.3644409179688	631.857666015625	-657.005859375	37.92543029785156	554.0791015625	-576.6754150390625	354.9831237792969	566.904296875	-434.3682861328125	39.90490341186523	525.9594116210938	-524.3859252929688	38.9405403137207	581.116455078125	-709.4415283203125	31.08540725708008	495.6634216308594	-496.2184143066406	40.01976013183594	481.0120849609375	nan	nan	nan	nan	nan	nan	
2	0.01	-695.5421142578125	1019.693908691406	508.9429321289062	-686.1661987304688	1022.749816894531	375.236083984375	-686.9579467773438	1107.851806640625	438.6959838867188	-465.5922241210938	1296.572265625	438.0685424804688	-704.39306640625	1232.897094726562	438.7917785644531	-663.0780639648438	1506.714233398438	450.8836364746094	-487.8482666015625	1407.633178710938	438.7477111816406	-731.23388671875	1380.900512695312	539.137451171875	-695.9483032226562	1453.233032226562	358.9835510253906	-597.8186645507812	1479.126098632812	276.8974609375	-605.4754638671875	1352.445434570312	196.2062835693359	-579.421142578125	1130.500732421875	176.0109558105469	-667.1469116210938	1120.901123046875	224.9051818847656	-481.5039978027344	890.0672607421875	225.5719604492188	-526.1162109375	865.4717407226562	153.9530181884766	-554.2860107421875	1044.761962890625	170.5169067382812	-478.6539001464844	719.20166015625	221.4008941650391	-515.5553588867188	805.7571411132812	163.3607788085938	-462.1368408203125	813.9498901367188	205.7182464599609	-599.998291015625	1468.639770507812	605.0560302734375	-616.0140991210938	1402.722290039062	673.380126953125	-614.756591796875	1112.088012695312	715.7949829101562	-668.588623046875	1094.1943359375	689.2833862304688	-480.222412109375	893.0917358398438	669.8209838867188	-521.98681640625	871.960205078125	737.876708984375	-602.6366577148438	1056.133178710938	721.8078002929688	-468.1334533691406	719.91796875	672.5950927734375	-449.9237670898438	802.3508911132812	683.9105224609375	-502.7690734863281	798.5140991210938	735.09130859375	-603.364501953125	1685.155395507812	509.6507873535156	-438.9353942871094	1720.395751953125	387.0411987304688	-467.7978820800781	1715.669189453125	529.1621704101562	-563.657470703125	1689.4990234375	348.7714233398438	-555.6195678710938	939.8936767578125	251.3632659912109	-578.8413696289062	942.1214599609375	634.013427734375	-488.9810791015625	970.6295166015625	581.6121215820312	-478.7093505859375	962.070556640625	305.4258117675781	-550.0499267578125	493.2249450683594	314.0048828125	-540.07080078125	658.9446411132812	274.8758850097656	-643.75537109375	34.10298919677734	322.330810546875	-622.0277709960938	251.1551818847656	309.3841552734375	-431.7557373046875	39.36293792724609	373.509521484375	-502.8111267089844	41.26807403564453	411.8027038574219	-521.0134887695312	35.19573974609375	305.224609375	-711.443603515625	36.69005584716797	380.2624206542969	-571.917724609375	496.6239929199219	581.71337890625	-546.809326171875	785.3704223632812	631.8046264648438	-657.0037841796875	37.94593811035156	554.0623779296875	-576.6514282226562	354.9822387695312	566.8729248046875	-434.36669921875	39.90574645996094	525.9584350585938	-524.3878173828125	38.93607711791992	581.1145629882812	-709.441650390625	31.08403396606445	495.6626586914062	-496.2180480957031	40.00805282592773	481.0029907226562	nan	nan	nan	nan	nan	nan	
3	0.02	-695.5940551757812	1019.686767578125	508.9287109375	-686.2237548828125	1022.731689453125	375.1878356933594	-687.0185546875	1107.881225585938	438.6901245117188	-465.6531982421875	1296.598510742188	438.0035095214844	-704.4576416015625	1232.9033203125	438.7904052734375	-663.2032470703125	1506.719116210938	450.95166015625	-487.9239196777344	1407.662475585938	438.6989440917969	-731.2613525390625	1380.914428710938	539.2168579101562	-696.075439453125	1453.229370117188	359.0239562988281	-597.9287109375	1479.143798828125	276.8606872558594	-605.6422729492188	1352.486083984375	196.207275390625	-579.5481567382812	1130.528930664062	176.0044250488281	-667.34326171875	1120.8955078125	224.8913726806641	-481.5816040039062	890.0946044921875	225.7666320800781	-526.1242065429688	865.4898681640625	154.1590270996094	-554.3362426757812	1044.787231445312	170.5625305175781	-478.5778503417969	719.3856201171875	221.6887359619141	-515.5003051757812	805.8565063476562	163.4884490966797	-462.1149291992188	814.0038452148438	205.9559783935547	-599.962890625	1468.6064453125	605.1066284179688	-615.9591674804688	1402.738525390625	673.40869140625	-614.6973266601562	1112.101196289062	715.843505859375	-668.5283203125	1094.228515625	689.3421630859375	-480.2597045898438	893.0692138671875	669.8004760742188	-521.9475708007812	871.9686889648438	737.8711547851562	-602.61181640625	1056.141357421875	721.8316040039062	-468.1682434082031	719.9103393554688	672.5612182617188	-449.9310607910156	802.3501586914062	683.9104614257812	-502.759033203125	798.480224609375	735.1122436523438	-603.3316650390625	1685.161010742188	509.6925048828125	-438.9755859375	1720.3603515625	387.0294494628906	-467.7945251464844	1715.66162109375	529.1610717773438	-563.6837768554688	1689.5009765625	348.7762145996094	-555.6445922851562	939.9104614257812	251.4352722167969	-578.845458984375	942.1287841796875	633.955322265625	-488.9909973144531	970.6746215820312	581.493408203125	-478.8440246582031	962.2085571289062	305.2497863769531	-550.10693359375	493.2479858398438	313.9382629394531	-540.1743774414062	658.9830322265625	274.7991333007812	-643.7570190429688	34.10220718383789	322.33056640625	-622.0556030273438	251.1316833496094	309.3996276855469	-431.7557678222656	39.36148071289062	373.5086669921875	-502.8087768554688	41.27946853637695	411.8033752441406	-521.0130004882812	35.19533538818359	305.2222290039062	-711.43896484375	36.68427276611328	380.256103515625	-571.8911743164062	496.6317443847656	581.6722412109375	-546.8036499023438	785.3763427734375	631.7386474609375	-657.0020141601562	37.96649551391602	554.0453491210938	-576.625244140625	354.9805908203125	566.8359985351562	-434.3655395507812	39.90644454956055	525.9572143554688	-524.3873291015625	38.93217086791992	581.1105346679688	-709.4417114257812	31.08075141906738	495.6623229980469	-496.2187805175781	39.99406051635742	480.9918823242188	nan	nan	nan	nan	nan	nan	
4	0.03	-695.6492919921875	1019.674499511719	508.901611328125	-686.2953491210938	1022.713317871094	375.1339111328125	-687.094970703125	1107.91162109375	438.6881103515625	-465.7311706542969	1296.627563476562	437.9306030273438	-704.5407104492188	1232.908203125	438.7937622070312	-663.35107421875	1506.723022460938	451.033447265625	-488.0115966796875	1407.69970703125	438.6376647949219	-731.2987060546875	1380.93017578125	539.3101196289062	-696.24853515625	1453.228271484375	359.0759582519531	-598.0725708007812	1479.166259765625	276.8174133300781	-605.849365234375	1352.529663085938	196.2082061767578	-579.7053833007812	1130.557983398438	176.0002899169922	-667.57373046875	1120.886108398438	224.8770141601562	-481.6786499023438	890.1392211914062	225.9747924804688	-526.1654663085938	865.5098876953125	154.3877105712891	-554.39990234375	1044.814331054688	170.6133880615234	-478.5584106445312	719.5735473632812	222.0484313964844	-515.449951171875	805.9667358398438	163.61376953125	-462.0999145507812	814.0806274414062	206.2094421386719	-599.9306030273438	1468.57421875	605.157958984375	-615.8982543945312	1402.755981445312	673.4409790039062	-614.6327514648438	1112.117553710938	715.9041748046875	-668.4544067382812	1094.264892578125	689.4151611328125	-480.2941284179688	893.0479125976562	669.7821655273438	-521.89599609375	871.982177734375	737.8724365234375	-602.5782470703125	1056.151245117188	721.8635864257812	-468.2041320800781	719.9016723632812	672.5331420898438	-449.933349609375	802.3496704101562	683.9083862304688	-502.7431030273438	798.4569702148438	735.1380004882812	-603.300048828125	1685.169311523438	509.7385559082031	-439.0268249511719	1720.300415039062	387.0201110839844	-467.7866516113281	1715.649536132812	529.1586303710938	-563.7152099609375	1689.505004882812	348.7806396484375	-555.6976928710938	939.9307250976562	251.4928436279297	-578.8584594726562	942.1354370117188	633.8939208984375	-489.01171875	970.7223510742188	581.3662109375	-479.001708984375	962.3521118164062	305.0859680175781	-550.178466796875	493.27392578125	313.8649291992188	-540.3135375976562	659.024658203125	274.6947326660156	-643.759521484375	34.09984588623047	322.3292846679688	-622.097412109375	251.1077728271484	309.4219665527344	-431.7553100585938	39.36046981811523	373.5074768066406	-502.8076171875	41.28980255126953	411.8034973144531	-521.0142822265625	35.19539260864258	305.2206726074219	-711.4317626953125	36.67459487915039	380.2495727539062	-571.865478515625	496.6380310058594	581.6287231445312	-546.802001953125	785.3809204101562	631.6636962890625	-657.0008544921875	37.98392868041992	554.0303955078125	-576.5992431640625	354.9778137207031	566.796142578125	-434.3651123046875	39.90697860717773	525.9554443359375	-524.3858032226562	38.92897415161133	581.1053466796875	-709.4415893554688	31.07490921020508	495.6627197265625	-496.2205505371094	39.97915267944336	480.9796447753906	nan	nan	nan	nan	nan	nan	
